<svg width="194" height="134" viewBox="0 0 194 134" fill="none" xmlns="http://www.w3.org/2000/svg">
<g clip-path="url(#clip0_67_621)">
<path d="M176.859 1.82684H17.2298C16.648 1.82684 16.0731 1.82684 15.4929 1.82968C15.007 1.83251 14.5251 1.84075 14.0347 1.84767C12.9692 1.85887 11.9062 1.94259 10.8549 2.09807C9.80517 2.25695 8.7883 2.55649 7.83869 2.98654C6.89024 3.42023 6.02363 3.98377 5.27026 4.65671C4.51296 5.32776 3.88168 6.1034 3.40071 6.95381C2.91841 7.80252 2.58398 8.712 2.40897 9.65083C2.23231 10.5885 2.13724 11.5369 2.12462 12.4877C2.1099 12.9221 2.10835 13.358 2.10059 13.7925V46.5456C2.10835 46.9856 2.1099 47.4118 2.12462 47.8519C2.13724 48.8027 2.23231 49.7512 2.40897 50.6886C2.5835 51.6281 2.91794 52.5381 3.40071 53.3871C3.88145 54.2347 4.51283 55.0073 5.27026 55.6745C6.02077 56.3504 6.88795 56.9144 7.83869 57.3448C8.78828 57.776 9.80506 58.0774 10.8549 58.2386C11.9064 58.3929 12.9692 58.4767 14.0347 58.4891C14.5251 58.4988 15.007 58.5043 15.4929 58.5043C16.0731 58.5071 16.648 58.5071 17.2298 58.5071H176.859C177.43 58.5071 178.008 58.5071 178.579 58.5043C179.062 58.5043 179.558 58.4988 180.041 58.4891C181.106 58.4774 182.166 58.3936 183.216 58.2386C184.268 58.0762 185.289 57.775 186.244 57.3448C187.193 56.9141 188.059 56.3503 188.81 55.6745C189.565 55.0047 190.197 54.2327 190.685 53.3871C191.164 52.5374 191.495 51.6276 191.667 50.6886C191.844 49.751 191.941 48.8027 191.961 47.8519C191.967 47.4118 191.967 46.9856 191.967 46.5456C191.98 46.0308 191.98 45.5188 191.98 44.9957V15.3397C191.98 14.8206 191.98 14.3059 191.967 13.7925C191.967 13.358 191.967 12.9221 191.961 12.4876C191.941 11.5368 191.844 10.5885 191.667 9.65077C191.494 8.71248 191.164 7.80308 190.685 6.95375C189.705 5.2492 188.151 3.86171 186.244 2.98641C185.289 2.55741 184.268 2.25795 183.216 2.09795C182.167 1.94176 181.106 1.85803 180.041 1.84748C179.558 1.84056 179.062 1.83226 178.579 1.82949C178.008 1.82666 177.43 1.82684 176.859 1.82684Z" stroke="white" stroke-width="2.12551"/>
<path d="M49.4793 31.9516C49.5149 29.1992 50.9578 26.6568 53.3028 25.2151C51.8167 23.0929 49.417 21.7954 46.8274 21.7144C44.1029 21.4284 41.4616 23.3447 40.0734 23.3447C38.6581 23.3447 36.5205 21.7429 34.2187 21.7902C31.1901 21.888 28.4352 23.5683 26.9616 26.2159C23.824 31.6486 26.1644 39.6327 29.1702 44.0241C30.6741 46.1744 32.4316 48.5762 34.7312 48.491C36.9817 48.3978 37.8222 47.056 40.5387 47.056C43.2299 47.056 44.0185 48.491 46.3649 48.4369C48.7796 48.3977 50.3011 46.2771 51.7522 44.1064C52.8327 42.5742 53.664 40.8808 54.2157 39.089C51.3477 37.8759 49.4827 35.0656 49.4793 31.9516Z" fill="#EFF2F5"/>
<path d="M45.0486 18.8257C46.3653 17.245 47.014 15.2135 46.8568 13.1624C44.8454 13.3736 42.9873 14.335 41.6527 15.855C40.335 17.3546 39.6675 19.3166 39.7971 21.3086C41.8357 21.3296 43.7713 20.4145 45.0486 18.8257Z" fill="#EFF2F5"/>
<path fill-rule="evenodd" clip-rule="evenodd" d="M70.2759 39.6728H76.9199L78.5141 44.3841H81.3762L75.0831 26.9536H72.1593L65.8662 44.3841H68.6804L70.2759 39.6728ZM76.2285 37.499H70.9621L73.5597 29.853H73.6323L76.2285 37.499Z" fill="#EFF2F5"/>
<path fill-rule="evenodd" clip-rule="evenodd" d="M89.6614 44.516C92.8513 44.516 94.9649 41.9787 94.9649 38.0297C94.9649 34.0915 92.8388 31.5419 89.6136 31.5419C87.9538 31.4883 86.3992 32.3516 85.5671 33.7886H85.5191V31.6748H82.9941V48.5871H85.6027V42.2926H85.6631C86.4597 43.7387 88.0128 44.6023 89.6614 44.516ZM88.9287 33.7653C90.9573 33.7653 92.287 35.4568 92.287 38.0297C92.287 40.6259 90.9573 42.3051 88.9287 42.3051C86.9356 42.3051 85.5951 40.5902 85.5951 38.0297C85.5951 35.4924 86.9356 33.7653 88.9287 33.7653Z" fill="#EFF2F5"/>
<path fill-rule="evenodd" clip-rule="evenodd" d="M103.648 44.5172C106.838 44.5172 108.951 41.9801 108.951 38.0309C108.951 34.0927 106.825 31.5431 103.6 31.5431C101.94 31.4897 100.385 32.3528 99.5533 33.7898H99.5054V31.6762H96.9805V48.5884H99.589V42.294H99.6494C100.446 43.74 101.999 44.6035 103.648 44.5172ZM102.917 33.7665C104.946 33.7665 106.275 35.458 106.275 38.031C106.275 40.6271 104.946 42.3063 102.917 42.3063C100.924 42.3063 99.5834 40.5916 99.5834 38.031C99.5834 35.4937 100.924 33.7665 102.917 33.7665Z" fill="#EFF2F5"/>
<path d="M118.197 39.5274C118.39 41.2559 120.069 42.3908 122.364 42.3908C124.563 42.3908 126.145 41.2559 126.145 39.6973C126.145 38.3444 125.191 37.5343 122.932 36.9791L120.673 36.435C117.472 35.6618 115.986 34.1649 115.986 31.736C115.986 28.7286 118.607 26.6628 122.328 26.6628C126.012 26.6628 128.537 28.7286 128.622 31.736H125.988C125.831 29.9965 124.393 28.9465 122.292 28.9465C120.19 28.9465 118.752 30.0088 118.752 31.5551C118.752 32.7873 119.671 33.5125 121.917 34.0676L123.838 34.5391C127.414 35.3848 128.9 36.8215 128.9 39.371C128.9 42.632 126.302 44.6744 122.171 44.6744C118.305 44.6744 115.695 42.68 115.527 39.5273L118.197 39.5274Z" fill="#EFF2F5"/>
<path d="M134.533 28.6675V31.6749H136.949V33.7407H134.533V40.7465C134.533 41.8349 135.016 42.342 136.079 42.342C136.366 42.3371 136.652 42.317 136.937 42.2817V44.3351C136.459 44.4243 135.974 44.4647 135.488 44.4556C132.915 44.4556 131.912 43.4892 131.912 41.0246V33.7407H130.064V31.6749H131.912V28.6675H134.533Z" fill="#EFF2F5"/>
<path fill-rule="evenodd" clip-rule="evenodd" d="M144.377 31.5181C140.704 31.5181 138.349 34.0307 138.349 38.0292C138.349 42.0386 140.681 44.5402 144.377 44.5402C148.074 44.5402 150.405 42.0386 150.405 38.0292C150.405 34.0307 148.061 31.5181 144.377 31.5181ZM144.372 33.6674C146.485 33.6674 147.742 35.2863 147.742 38.0291C147.742 40.783 146.485 42.3895 144.372 42.3895C142.258 42.3895 141.003 40.783 141.003 38.0291C141.003 35.2986 142.258 33.6674 144.372 33.6674Z" fill="#EFF2F5"/>
<path d="M152.555 31.6748H155.043V33.8378H155.102C155.45 32.4454 156.725 31.4871 158.159 31.5418C158.459 31.5408 158.76 31.5734 159.053 31.6391V34.0791C158.673 33.963 158.278 33.9099 157.881 33.9214C157.115 33.8903 156.372 34.196 155.849 34.7581C155.326 35.3202 155.076 36.0826 155.163 36.8452V44.383H152.555V31.6748Z" fill="#EFF2F5"/>
<path fill-rule="evenodd" clip-rule="evenodd" d="M165.606 44.5402C168.481 44.5402 170.727 42.957 171.079 40.6501L168.602 40.65C168.126 41.8292 166.933 42.5561 165.667 42.4375C164.718 42.4724 163.8 42.0979 163.145 41.4092C162.49 40.7205 162.164 39.784 162.248 38.8379V38.6803H171.223V37.7866C171.223 33.9334 169.013 31.5181 165.497 31.5181C161.922 31.5181 159.615 34.1034 159.615 38.0894C159.615 42.0633 161.909 44.5402 165.606 44.5402ZM168.615 36.8574H162.261C162.258 35.9994 162.599 35.1761 163.207 34.5704C163.814 33.9647 164.639 33.6269 165.497 33.632C166.349 33.6137 167.168 33.9514 167.76 34.5636C168.352 35.1759 168.661 36.0073 168.615 36.8574Z" fill="#EFF2F5"/>
<path fill-rule="evenodd" clip-rule="evenodd" d="M67.6138 22.2077V13.8325H70.9803C72.5539 13.8325 73.4997 14.6331 73.4997 15.9216C73.5004 16.7942 72.8867 17.5467 72.0317 17.7213V17.8201C73.1016 17.8707 73.9372 18.7628 73.9179 19.8336C73.9179 21.3079 72.8445 22.2078 71.0557 22.2078L67.6138 22.2077ZM68.9153 17.3788H70.4587C71.6087 17.3788 72.2064 16.9553 72.2064 16.1603C72.2064 15.3879 71.643 14.9355 70.6793 14.9355H68.9153V17.3788ZM72.5889 19.7411C72.5889 20.6287 71.968 21.105 70.7959 21.105H68.9153V18.406H70.7206C71.9446 18.406 72.5889 18.8645 72.5889 19.7411Z" fill="#EFF2F5"/>
<path fill-rule="evenodd" clip-rule="evenodd" d="M77.6067 18.5335C76.1029 18.6267 75.2559 19.2827 75.2559 20.4204C75.258 20.9598 75.4881 21.4732 75.8895 21.8336C76.291 22.1941 76.826 22.3678 77.3627 22.312C78.128 22.3474 78.8534 21.9682 79.2612 21.3196H79.3598V22.2078H80.5606V17.8893C80.5606 16.5542 79.6669 15.7654 78.0822 15.7654C76.6485 15.7654 75.6273 16.4617 75.4999 17.5473H76.7074C76.8459 17.1005 77.3284 16.8447 78.0247 16.8447C78.8773 16.8447 79.3187 17.2218 79.3187 17.8893V18.4349L77.6067 18.5335ZM79.3217 19.352V19.8804C79.2943 20.2832 79.1047 20.6577 78.7963 20.9182C78.4878 21.1786 78.0868 21.3028 77.685 21.2621C77.0064 21.2621 76.513 20.9311 76.513 20.3622C76.513 19.805 76.9078 19.5088 77.7781 19.4506L79.3217 19.352Z" fill="#EFF2F5"/>
<path fill-rule="evenodd" clip-rule="evenodd" d="M82.81 13.2385C82.51 13.3788 82.326 13.6879 82.3457 14.0185C82.3477 14.2278 82.4349 14.4272 82.5873 14.5707C82.7397 14.7141 82.9441 14.7892 83.1531 14.7786C83.4842 14.7783 83.7817 14.576 83.9037 14.2681C84.0257 13.9602 83.9475 13.6091 83.7063 13.3821C83.4651 13.1551 83.11 13.0982 82.81 13.2385ZM83.7743 15.8875H82.531V22.2081H83.7743V15.8875Z" fill="#EFF2F5"/>
<path d="M88.0603 19.9673L86.6788 22.2078H85.3094L87.4051 19.0619L85.2915 15.8872H86.7486L88.107 18.1162H88.2057L89.5517 15.8872H90.939L88.8554 19.0099L90.9624 22.2078H89.5298L88.1536 19.9673H88.0603Z" fill="#EFF2F5"/>
<path fill-rule="evenodd" clip-rule="evenodd" d="M94.4094 18.5335C92.9057 18.6267 92.0586 19.2827 92.0586 20.4204C92.0607 20.9598 92.2908 21.4732 92.6923 21.8336C93.0937 22.1941 93.6288 22.3678 94.1654 22.312C94.9309 22.3474 95.6561 21.9682 96.0639 21.3196H96.1625V22.2078H97.3633V17.8893C97.3633 16.5542 96.4696 15.7654 94.8851 15.7654C93.4512 15.7654 92.43 16.4617 92.3026 17.5473H93.5102C93.6486 17.1005 94.1311 16.8447 94.8274 16.8447C95.68 16.8447 96.1214 17.2218 96.1214 17.8893V18.4349L94.4094 18.5335ZM96.1189 19.352V19.8804C96.0915 20.2832 95.9019 20.6577 95.5935 20.9182C95.285 21.1786 94.884 21.3028 94.4822 21.2621C93.8036 21.2621 93.3102 20.9311 93.3102 20.3622C93.3102 19.805 93.705 19.5088 94.5753 19.4506L96.1189 19.352Z" fill="#EFF2F5"/>
<path d="M99.3198 15.8876H100.521V16.8567H100.614C100.89 16.1664 101.579 15.7327 102.32 15.7827C102.507 15.7802 102.694 15.7976 102.877 15.8347V17.0658C102.648 17.0169 102.415 16.9916 102.181 16.9904C101.765 16.953 101.352 17.0932 101.045 17.376C100.738 17.659 100.564 18.0586 100.567 18.4763V22.2081H99.3198V15.8876Z" fill="#EFF2F5"/>
<path d="M107.682 15.8885H108.883V16.8926H108.976C109.3 16.1534 110.058 15.7011 110.863 15.7665C111.485 15.7196 112.096 15.9587 112.521 16.4159C112.947 16.8733 113.142 17.4994 113.05 18.1173V22.2089H111.803V18.4305C111.803 17.4148 111.361 16.9098 110.439 16.9098C110.016 16.8901 109.606 17.0559 109.316 17.3638C109.026 17.6715 108.885 18.0908 108.93 18.5114V22.2089H107.682V15.8885Z" fill="#EFF2F5"/>
<path fill-rule="evenodd" clip-rule="evenodd" d="M116.972 18.5335C115.468 18.6267 114.621 19.2827 114.621 20.4204C114.623 20.9598 114.853 21.4732 115.255 21.8336C115.656 22.1941 116.191 22.3678 116.728 22.312C117.493 22.3474 118.219 21.9682 118.626 21.3196H118.725V22.2078H119.926V17.8893C119.926 16.5542 119.032 15.7654 117.448 15.7654C116.014 15.7654 114.993 16.4617 114.865 17.5473H116.073C116.211 17.1005 116.694 16.8447 117.39 16.8447C118.243 16.8447 118.684 17.2218 118.684 17.8893V18.4349L116.972 18.5335ZM118.683 19.352V19.8804C118.656 20.2832 118.466 20.6577 118.157 20.9182C117.849 21.1786 117.448 21.3028 117.046 21.2621C116.368 21.2621 115.874 20.9311 115.874 20.3622C115.874 19.805 116.269 19.5088 117.139 19.4506L118.683 19.352Z" fill="#EFF2F5"/>
</g>
<g clip-path="url(#clip1_67_621)">
<path fill-rule="evenodd" clip-rule="evenodd" d="M147.433 117.227H149.743V101.752H147.433V117.227ZM168.238 107.326L165.591 114.035H165.512L162.764 107.326H160.277L164.398 116.703L162.047 121.919H164.456L170.807 107.326H168.238ZM155.136 115.469C154.382 115.469 153.325 115.09 153.325 114.155C153.325 112.961 154.64 112.503 155.775 112.503C156.79 112.503 157.269 112.722 157.885 113.02C157.705 114.454 156.471 115.469 155.136 115.469ZM155.418 106.988C153.745 106.988 152.013 107.725 151.296 109.358L153.347 110.213C153.784 109.358 154.602 109.078 155.457 109.078C156.651 109.078 157.865 109.794 157.885 111.068V111.228C157.467 110.989 156.572 110.631 155.476 110.631C153.266 110.631 151.017 111.846 151.017 114.115C151.017 116.186 152.829 117.52 154.86 117.52C156.412 117.52 157.269 116.823 157.806 116.006H157.885V117.201H160.117V111.269C160.117 108.521 158.064 106.988 155.418 106.988ZM141.143 109.21H137.858V103.906H141.143C142.869 103.906 143.85 105.336 143.85 106.558C143.85 107.757 142.869 109.21 141.143 109.21ZM141.083 101.752H135.549V117.227H137.857V111.364H141.083C143.643 111.364 146.16 109.511 146.16 106.558C146.16 103.605 143.643 101.752 141.083 101.752ZM110.904 115.473C109.308 115.473 107.973 114.136 107.973 112.301C107.973 110.446 109.308 109.09 110.904 109.09C112.478 109.09 113.715 110.446 113.715 112.301C113.715 114.136 112.478 115.473 110.904 115.473ZM113.555 108.193H113.476C112.957 107.575 111.96 107.015 110.704 107.015C108.072 107.015 105.659 109.33 105.659 112.301C105.659 115.252 108.072 117.546 110.704 117.546C111.96 117.546 112.957 116.988 113.476 116.35H113.555V117.106C113.555 119.122 112.478 120.197 110.744 120.197C109.328 120.197 108.45 119.181 108.091 118.323L106.077 119.161C106.655 120.556 108.19 122.272 110.744 122.272C113.456 122.272 115.75 120.676 115.75 116.788V107.335H113.555V108.193ZM117.346 117.227H119.658V101.752H117.346V117.227ZM123.068 112.122C123.008 110.087 124.644 109.051 125.821 109.051C126.738 109.051 127.515 109.51 127.775 110.167L123.068 112.122ZM130.248 110.366C129.808 109.19 128.472 107.015 125.74 107.015C123.028 107.015 120.774 109.151 120.774 112.281C120.774 115.232 123.009 117.546 125.999 117.546C128.412 117.546 129.808 116.07 130.387 115.213L128.592 114.016C127.993 114.893 127.176 115.473 125.999 115.473C124.823 115.473 123.985 114.933 123.448 113.876L130.486 110.964L130.248 110.366ZM74.1624 108.632V110.865H79.5073C79.3476 112.122 78.9281 113.039 78.2905 113.676C77.5119 114.455 76.2951 115.313 74.1624 115.313C70.8708 115.313 68.2986 112.66 68.2986 109.37C68.2986 106.08 70.8708 103.427 74.1624 103.427C75.9375 103.427 77.2335 104.125 78.1904 105.023L79.7661 103.447C78.4293 102.171 76.6553 101.193 74.1624 101.193C69.6553 101.193 65.8662 104.863 65.8662 109.37C65.8662 113.876 69.6553 117.546 74.1624 117.546C76.5947 117.546 78.4293 116.748 79.8651 115.252C81.3407 113.777 81.7999 111.703 81.7999 110.027C81.7999 109.51 81.7602 109.031 81.6797 108.632H74.1624ZM87.8763 115.473C86.2819 115.473 84.9054 114.155 84.9054 112.281C84.9054 110.386 86.2819 109.09 87.8763 109.09C89.4719 109.09 90.8484 110.386 90.8484 112.281C90.8484 114.155 89.4719 115.473 87.8763 115.473ZM87.8762 107.015C84.9648 107.015 82.5917 109.23 82.5917 112.281C82.5917 115.313 84.9648 117.546 87.8762 117.546C90.7888 117.546 93.1618 115.313 93.1618 112.281C93.1618 109.23 90.7888 107.015 87.8762 107.015ZM99.4051 115.473C97.8095 115.473 96.4331 114.155 96.4331 112.281C96.4331 110.386 97.8095 109.09 99.4051 109.09C101.001 109.09 102.376 110.386 102.376 112.281C102.376 114.155 101.001 115.473 99.4051 115.473ZM99.4037 107.015C96.4923 107.015 94.1192 109.23 94.1192 112.281C94.1192 115.313 96.4923 117.546 99.4037 117.546C102.315 117.546 104.688 115.313 104.688 112.281C104.688 109.23 102.315 107.015 99.4037 107.015Z" fill="#EFF2F5"/>
<path fill-rule="evenodd" clip-rule="evenodd" d="M67.1856 95.2701H68.5027C69.3606 95.2701 70.0402 95.025 70.5415 94.5335C71.0428 94.0421 71.2928 93.3539 71.2928 92.4688C71.2928 91.5911 71.0428 90.9054 70.5415 90.4102C70.0402 89.9164 69.3606 89.6688 68.5027 89.6688H67.1856V95.2701ZM66.231 96.1822V88.7551H68.5024C69.6437 88.7551 70.5572 89.0993 71.2418 89.7876C71.9263 90.4758 72.268 91.3695 72.268 92.4687C72.268 93.568 71.9263 94.4628 71.2418 95.1499C70.5572 95.8382 69.6437 96.1822 68.5024 96.1822H66.231Z" fill="#EFF2F5"/>
<path fill-rule="evenodd" clip-rule="evenodd" d="M73.6089 96.1837H74.5632V88.7566H73.6089V96.1837Z" fill="#EFF2F5"/>
<path fill-rule="evenodd" clip-rule="evenodd" d="M78.3574 96.3494C77.8178 96.3494 77.2917 96.1737 76.7768 95.8209C76.2605 95.468 75.9226 94.9742 75.7642 94.338L76.6356 93.9851C76.7396 94.3924 76.9513 94.7366 77.2731 95.0163C77.5962 95.296 77.9564 95.4371 78.3574 95.4371C78.7722 95.4371 79.1274 95.3282 79.4208 95.1104C79.7153 94.8924 79.8614 94.5966 79.8614 94.2228C79.8614 93.8081 79.7153 93.4887 79.4208 93.2634C79.1274 93.0394 78.6619 92.8303 78.0257 92.6359C77.3685 92.4291 76.8708 92.1606 76.5316 91.8326C76.1937 91.5032 76.0229 91.0835 76.0229 90.5724C76.0229 90.0389 76.2346 89.5758 76.6567 89.1822C77.0787 88.7887 77.6284 88.5906 78.3054 88.5906C78.9356 88.5906 79.4468 88.7477 79.8405 89.0622C80.2352 89.3779 80.4916 89.7219 80.6079 90.0946L79.7377 90.4572C79.6745 90.2233 79.5211 90.0055 79.2759 89.8037C79.0309 89.6043 78.7139 89.5041 78.3265 89.5041C77.9601 89.5041 77.6469 89.6056 77.3882 89.8098C77.1283 90.0141 76.9984 90.2679 76.9984 90.5724C76.9984 90.8484 77.1184 91.0824 77.356 91.2717C77.5962 91.4624 77.9465 91.6332 78.4094 91.7855C78.7759 91.9031 79.0817 92.0169 79.3279 92.1283C79.5731 92.2385 79.823 92.3857 80.0744 92.569C80.3269 92.7522 80.5162 92.98 80.645 93.2535C80.7726 93.5272 80.8369 93.8427 80.8369 94.2029C80.8369 94.562 80.7627 94.8838 80.6142 95.1673C80.4655 95.4507 80.2676 95.676 80.0224 95.8418C79.776 96.0078 79.5136 96.134 79.2289 96.2207C78.9455 96.306 78.6546 96.3494 78.3574 96.3494Z" fill="#EFF2F5"/>
<path fill-rule="evenodd" clip-rule="evenodd" d="M83.1632 92.2621H84.7613C85.1623 92.2621 85.4843 92.1285 85.7256 91.8586C85.9682 91.5888 86.0884 91.2918 86.0884 90.9661C86.0884 90.6406 85.9682 90.3435 85.7256 90.0737C85.4843 89.8038 85.1623 89.6689 84.7613 89.6689H83.1632V92.2621ZM83.1614 96.1837H82.207V88.7566H84.7384C85.3672 88.7566 85.9131 88.9657 86.3723 89.3842C86.8329 89.8025 87.0618 90.3299 87.0618 90.9661C87.0618 91.6024 86.8329 92.1296 86.3723 92.5468C85.9131 92.9665 85.3672 93.1757 84.7384 93.1757H83.1614V96.1837Z" fill="#EFF2F5"/>
<path fill-rule="evenodd" clip-rule="evenodd" d="M89.596 94.6017C90.1456 95.1587 90.8178 95.436 91.6137 95.436C92.4084 95.436 93.0817 95.1587 93.6314 94.6017C94.1811 94.0446 94.4571 93.3342 94.4571 92.4701C94.4571 91.6061 94.1811 90.8943 93.6314 90.3385C93.0817 89.7814 92.4084 89.503 91.6137 89.503C90.8178 89.503 90.1456 89.7814 89.596 90.3385C89.0477 90.8943 88.7716 91.6061 88.7716 92.4701C88.7716 93.3342 89.0477 94.0446 89.596 94.6017ZM94.3365 95.223C93.6062 95.9743 92.6987 96.3494 91.6132 96.3494C90.5276 96.3494 89.6203 95.9743 88.8911 95.223C88.1608 94.4729 87.7969 93.5556 87.7969 92.4699C87.7969 91.3843 88.1608 90.4658 88.8911 89.7157C89.6203 88.9657 90.5276 88.5906 91.6132 88.5906C92.6926 88.5906 93.5975 88.9668 94.3316 89.7206C95.0643 90.4745 95.4307 91.3906 95.4307 92.4699C95.4307 93.5556 95.0656 94.4729 94.3365 95.223Z" fill="#EFF2F5"/>
<path fill-rule="evenodd" clip-rule="evenodd" d="M96.771 96.1837V88.7566H97.9321L101.542 94.5336H101.584L101.542 93.1027V88.7566H102.497V96.1837H101.501L97.7254 90.1256H97.6833L97.7254 91.5579V96.1837H96.771Z" fill="#EFF2F5"/>
<path fill-rule="evenodd" clip-rule="evenodd" d="M105.093 88.1754H104.262L104.803 86.8472H105.84L105.093 88.1754ZM104.198 96.183H105.153V88.7559H104.198V96.183Z" fill="#EFF2F5"/>
<path fill-rule="evenodd" clip-rule="evenodd" d="M108.687 96.1837L106.074 88.7566H107.131L109.165 94.7837H109.206L111.323 88.7566H112.38L109.684 96.1837H108.687Z" fill="#EFF2F5"/>
<path fill-rule="evenodd" clip-rule="evenodd" d="M117.797 89.6689H114.415V92.0234H117.464V92.9158H114.415V95.2702H117.797V96.1837H113.46V88.7566H117.797V89.6689Z" fill="#EFF2F5"/>
<path fill-rule="evenodd" clip-rule="evenodd" d="M119.292 96.1837V88.7566H120.246V95.2714H123.461V96.1837H119.292Z" fill="#EFF2F5"/>
<path fill-rule="evenodd" clip-rule="evenodd" d="M127.154 96.1837V88.7566H128.315L131.925 94.5336H131.967L131.925 93.1027V88.7566H132.881V96.1837H131.884L128.109 90.1256H128.067L128.109 91.5579V96.1837H127.154Z" fill="#EFF2F5"/>
<path fill-rule="evenodd" clip-rule="evenodd" d="M135.911 94.6017C136.461 95.1587 137.133 95.436 137.929 95.436C138.724 95.436 139.397 95.1587 139.947 94.6017C140.496 94.0446 140.772 93.3342 140.772 92.4701C140.772 91.6061 140.496 90.8943 139.947 90.3385C139.397 89.7814 138.724 89.503 137.929 89.503C137.133 89.503 136.461 89.7814 135.911 90.3385C135.363 90.8943 135.087 91.6061 135.087 92.4701C135.087 93.3342 135.363 94.0446 135.911 94.6017ZM140.652 95.223C139.921 95.9743 139.014 96.3494 137.929 96.3494C136.843 96.3494 135.936 95.9743 135.207 95.223C134.476 94.4729 134.112 93.5556 134.112 92.4699C134.112 91.3843 134.476 90.4658 135.207 89.7157C135.936 88.9657 136.843 88.5906 137.929 88.5906C139.008 88.5906 139.913 88.9668 140.647 89.7206C141.38 90.4745 141.746 91.3906 141.746 92.4699C141.746 93.5556 141.381 94.4729 140.652 95.223Z" fill="#EFF2F5"/>
<path fill-rule="evenodd" clip-rule="evenodd" d="M25.7305 89.2458V117.23C25.7305 118.025 25.9378 118.638 26.2885 119.031L26.3778 119.122L41.3105 103.238L26.3885 87.3647C25.9835 87.752 25.7305 88.3854 25.7305 89.2458Z" fill="#EFF2F5"/>
<path fill-rule="evenodd" clip-rule="evenodd" d="M44.1553 103.236L49.1344 108.533L55.1429 104.9C55.9071 104.439 56.335 103.844 56.4062 103.238V103.235C56.335 102.628 55.9071 102.033 55.1429 101.572L49.1332 97.939L44.1553 103.236Z" fill="#EFF2F5"/>
<path fill-rule="evenodd" clip-rule="evenodd" d="M27.9087 120.705C28.4704 121.159 29.2924 121.179 30.2146 120.622L47.5965 110.115L42.7317 104.937L27.9087 120.705Z" fill="#EFF2F5"/>
<path fill-rule="evenodd" clip-rule="evenodd" d="M28.8513 85.4302C28.4909 85.4379 28.1727 85.5546 27.9087 85.7661L42.733 101.537L47.5989 96.3589L30.2157 85.852C29.7541 85.5725 29.3178 85.4379 28.926 85.4302H28.8513Z" fill="#EFF2F5"/>
<path d="M176.859 75.5114H17.2298C16.648 75.5114 16.0731 75.5114 15.4929 75.5142C15.007 75.5171 14.5251 75.5253 14.0347 75.5322C12.9692 75.5434 11.9062 75.6272 10.8549 75.7826C9.80517 75.9415 8.7883 76.2411 7.83869 76.6711C6.89024 77.1048 6.02363 77.6683 5.27026 78.3413C4.51296 79.0123 3.88168 79.788 3.40071 80.6384C2.91841 81.4871 2.58398 82.3966 2.40897 83.3354C2.23231 84.273 2.13724 85.2215 2.12462 86.1722C2.1099 86.6067 2.10835 87.0426 2.10059 87.4771V120.23C2.10835 120.67 2.1099 121.096 2.12462 121.537C2.13724 122.487 2.23231 123.436 2.40897 124.373C2.5835 125.313 2.91794 126.223 3.40071 127.072C3.88145 127.919 4.51283 128.692 5.27026 129.359C6.02077 130.035 6.88795 130.599 7.83869 131.029C8.78828 131.461 9.80506 131.762 10.8549 131.923C11.9064 132.077 12.9692 132.161 14.0347 132.174C14.5251 132.183 15.007 132.189 15.4929 132.189C16.0731 132.192 16.648 132.192 17.2298 132.192H176.859C177.43 132.192 178.008 132.192 178.579 132.189C179.062 132.189 179.558 132.183 180.041 132.174C181.106 132.162 182.166 132.078 183.216 131.923C184.268 131.761 185.289 131.46 186.244 131.029C187.193 130.599 188.059 130.035 188.81 129.359C189.565 128.689 190.197 127.917 190.685 127.072C191.164 126.222 191.495 125.312 191.667 124.373C191.844 123.436 191.941 122.487 191.961 121.537C191.967 121.096 191.967 120.67 191.967 120.23C191.98 119.715 191.98 119.203 191.98 118.68V89.0242C191.98 88.5052 191.98 87.9905 191.967 87.4771C191.967 87.0426 191.967 86.6067 191.961 86.1722C191.941 85.2214 191.844 84.2731 191.667 83.3353C191.494 82.3971 191.164 81.4876 190.685 80.6383C189.705 78.9338 188.151 77.5463 186.244 76.671C185.289 76.242 184.268 75.9425 183.216 75.7825C182.167 75.6263 181.106 75.5426 180.041 75.532C179.558 75.5251 179.062 75.5168 178.579 75.5141C178.008 75.5112 177.43 75.5114 176.859 75.5114Z" stroke="white" stroke-width="2.12551"/>
</g>
<defs>
<clipPath id="clip0_67_621">
<rect width="192.713" height="59.5144" fill="white" transform="translate(0.683594 0.409668)"/>
</clipPath>
<clipPath id="clip1_67_621">
<rect width="192.713" height="59.5144" fill="white" transform="translate(0.683594 74.0942)"/>
</clipPath>
</defs>
</svg>
