<svg width="15" height="14" viewBox="0 0 15 14" fill="none" xmlns="http://www.w3.org/2000/svg">
<path d="M7.27754 6.67086C8.16215 6.67086 9.01053 6.31945 9.63604 5.69393C10.2616 5.06842 10.613 4.22004 10.613 3.33543C10.613 2.45082 10.2616 1.60244 9.63604 0.976924C9.01053 0.35141 8.16215 0 7.27754 0C6.39293 0 5.54455 0.35141 4.91904 0.976924C4.29352 1.60244 3.94211 2.45082 3.94211 3.33543C3.94211 4.22004 4.29352 5.06842 4.91904 5.69393C5.54455 6.31945 6.39293 6.67086 7.27754 6.67086ZM7.27754 8.13629C2.84287 8.13629 0 10.5835 0 11.7751V14H14.5551V11.7751C14.5551 10.3341 11.8637 8.13629 7.27754 8.13629Z" fill="white"/>
</svg>
