<svg width="20" height="18" viewBox="0 0 20 18" fill="none" xmlns="http://www.w3.org/2000/svg">
<path d="M13.4797 4.37263C13.9881 3.80462 14.7269 3.44715 15.5492 3.44715C17.0826 3.44715 18.3256 4.69021 18.3256 6.22359C18.3256 7.75702 17.0826 9.00003 15.5492 9.00003H1.66699M6.7657 2.21318C7.10463 1.8345 7.59716 1.59619 8.14535 1.59619C9.16764 1.59619 9.99631 2.42489 9.99631 3.44715C9.99631 4.46941 9.16764 5.29811 8.14535 5.29811H1.66699M9.54218 15.7869C9.88109 16.1656 10.3736 16.4039 10.9218 16.4039C11.9441 16.4039 12.7728 15.5752 12.7728 14.5529C12.7728 13.5306 11.9441 12.702 10.9218 12.702H1.66699" stroke="#B47500" stroke-width="1.5" stroke-linecap="round" stroke-linejoin="round"/>
</svg>
