<svg width="20" height="16" viewBox="0 0 20 16" fill="none" xmlns="http://www.w3.org/2000/svg">
<path d="M1 2.07288L1.56182 2.63469C2.07788 3.15076 2.77781 3.44067 3.50763 3.44067C4.23745 3.44067 4.93738 3.15076 5.45344 2.63469L5.66521 2.42292C6.18127 1.90686 6.8812 1.61694 7.61102 1.61694C8.34088 1.61694 9.04074 1.90686 9.55685 2.42292L9.76859 2.63469C10.2847 3.15076 10.9846 3.44067 11.7144 3.44067C12.4443 3.44067 13.1441 3.15076 13.6602 2.63469L13.872 2.42292C14.3881 1.90686 15.088 1.61694 15.8178 1.61694C16.5477 1.61694 17.2475 1.90686 17.7636 2.42292L18.3254 2.98474M1 7.54407L1.56182 8.10587C2.07788 8.62198 2.77781 8.91186 3.50763 8.91186C4.23745 8.91186 4.93738 8.62198 5.45344 8.10587L5.66521 7.89413C6.18127 7.37802 6.8812 7.08813 7.61102 7.08813C8.34088 7.08813 9.04074 7.37802 9.55685 7.89413L9.76859 8.10587C10.2847 8.62198 10.9846 8.91186 11.7144 8.91186C12.4443 8.91186 13.1441 8.62198 13.6602 8.10587L13.872 7.89413C14.3881 7.37802 15.088 7.08813 15.8178 7.08813C16.5477 7.08813 17.2475 7.37802 17.7636 7.89413L18.3254 8.45593M1 13.0153L1.56182 13.5771C2.07788 14.0932 2.77781 14.3831 3.50763 14.3831C4.23745 14.3831 4.93738 14.0932 5.45344 13.5771L5.66521 13.3653C6.18127 12.8492 6.8812 12.5593 7.61102 12.5593C8.34088 12.5593 9.04074 12.8492 9.55685 13.3653L9.76859 13.5771C10.2847 14.0932 10.9846 14.3831 11.7144 14.3831C12.4443 14.3831 13.1441 14.0932 13.6602 13.5771L13.872 13.3653C14.3881 12.8492 15.088 12.5593 15.8178 12.5593C16.5477 12.5593 17.2475 12.8492 17.7636 13.3653L18.3254 13.9271" stroke="#008CFF" stroke-width="1.5" stroke-linecap="round" stroke-linejoin="round"/>
</svg>
