<svg width="17" height="22" viewBox="0 0 17 22" fill="none" xmlns="http://www.w3.org/2000/svg">
<path d="M8.67383 2.10669C8.6759 5.31418 8.78777 7.93557 10.7354 10.2258L12.3516 12.1272L12.041 9.65161C11.9674 9.06542 12.0382 8.31723 12.3984 7.64868C12.6467 7.18797 13.047 6.73787 13.6875 6.3938C13.8305 7.80444 14.2578 8.85141 14.665 9.76782C15.171 10.9064 15.5811 11.733 15.5811 12.884C15.5809 16.9812 12.2602 20.3019 8.16309 20.302C4.06581 20.302 0.744333 16.9813 0.744141 12.884C0.744141 12.0544 0.933217 11.1199 1.30566 10.3059C1.49712 9.88755 1.72889 9.51656 1.99609 9.21021C2.03822 9.3895 2.08673 9.58108 2.14453 9.77954C2.42713 10.7496 2.95023 12.0343 3.92383 12.8313L5.00977 13.72L5.13672 12.3235C5.16473 12.0153 5.16096 11.6404 5.15137 11.2522C5.14136 10.8473 5.12427 10.4176 5.11816 9.93677C5.10609 8.98501 5.13781 7.91903 5.3457 6.85864C5.70276 5.03743 6.56941 3.2468 8.67383 2.10669Z" stroke="#FF0000" stroke-width="1.48838"/>
</svg>
